<svg xmlns="http://www.w3.org/2000/svg" xmlns:xlink="http://www.w3.org/1999/xlink" xml:space="preserve" version="1.1" style="shape-rendering:geometricPrecision;text-rendering:geometricPrecision;image-rendering:optimizeQuality;" viewBox="0 0 847 1058.75" x="0px" y="0px" fill-rule="evenodd" clip-rule="evenodd"><defs><style type="text/css">
   
    .fil0 {fill:black;fill-rule:nonzero}
   
  </style></defs><g><path class="fil0" d="M692 209l-539 1c-11,0 -15,1 -13,13 26,165 54,333 76,498 5,46 44,84 92,83 77,-1 154,0 231,0 52,-1 84,-31 92,-82 25,-165 47,-332 75,-497 2,-14 -1,-17 -15,-17zm41 -40c-14,-37 -50,-77 -88,-77 -16,1 -41,1 -73,1 -24,0 -43,0 -55,0 -10,0 -15,-2 -18,-13 -11,-49 -141,-50 -153,0 -3,10 -7,14 -17,13 -43,-1 -85,-1 -127,0 -38,0 -82,42 -90,81 -3,13 1,23 13,23l592 0c17,0 23,-10 16,-28zm-287 531l-43 0 0 -384 43 0 1 384zm-224 -384l43 0 53 384 -43 0 -53 -384zm352 384l-43 0 52 -384 44 0 -54 384z"/></g><text x="0" y="862" fill="#000000" font-size="5px" font-weight="bold" font-family="'Helvetica Neue', Helvetica, Arial-Unicode, Arial, Sans-serif">Created by Azza Rizqi</text><text x="0" y="867" fill="#000000" font-size="5px" font-weight="bold" font-family="'Helvetica Neue', Helvetica, Arial-Unicode, Arial, Sans-serif">from the Noun Project</text></svg>