<svg xmlns="http://www.w3.org/2000/svg" xmlns:xlink="http://www.w3.org/1999/xlink" version="1.1" x="0px" y="0px" viewBox="0 0 96 120" enable-background="new 0 0 96 96" xml:space="preserve"><path d="M68.771,54.641c-0.819,0.735-2.084,0.668-2.828-0.156c-0.739-0.82-0.664-2.084,0.156-2.824l7.664-6.888  c-1.615-12.84-12.728-22.776-25.74-22.776c-0.764,0-1.532,0.032-2.308,0.1C38.8,22.7,32.532,25.968,28.068,31.288  c-4.356,5.2-6.464,11.752-5.992,18.508l4.74-5.008c0.764-0.8,2.028-0.832,2.828-0.08c0.804,0.756,0.836,2.024,0.08,2.828  l-6.816,7.204c3.016,11.088,13.256,19.252,25.052,19.252l0,0c0.765,0,1.532-0.036,2.308-0.096  c6.916-0.608,13.188-3.877,17.648-9.201c3.523-4.207,5.568-9.299,5.977-14.672L68.771,54.641z"/><path d="M48,0C21.532,0,0,21.532,0,48s21.532,48,48,48s48-21.532,48-48S74.468,0,48,0z M83.584,55.936  c-0.54,0-1.084-0.22-1.477-0.655l-4.244-4.628c-0.527,6.084-2.875,11.848-6.883,16.619C65.832,73.412,58.6,77.18,50.62,77.876  c-0.896,0.08-1.776,0.116-2.66,0.116l0,0c-13.58,0-25.372-9.372-28.888-22.12l-8.312-7.708c-0.812-0.752-0.856-2.016-0.108-2.824  c0.752-0.812,2.016-0.86,2.828-0.108l4.592,4.256c-0.388-7.584,2.032-14.92,6.936-20.769c5.148-6.144,12.38-9.912,20.364-10.608  C61.624,16.68,75.98,28.772,77.784,44.64l7.268,7.936c0.753,0.82,0.688,2.084-0.12,2.828C84.548,55.764,84.064,55.936,83.584,55.936  L83.584,55.936z"/><text x="0" y="111" fill="#000000" font-size="5px" font-weight="bold" font-family="'Helvetica Neue', Helvetica, Arial-Unicode, Arial, Sans-serif">Created by iconsmind.com</text><text x="0" y="116" fill="#000000" font-size="5px" font-weight="bold" font-family="'Helvetica Neue', Helvetica, Arial-Unicode, Arial, Sans-serif">from the Noun Project</text></svg>